<svg width="336" height="102" viewBox="0 0 336 102" fill="none" xmlns="http://www.w3.org/2000/svg">
<path d="M84.0057 40.6794C91.3921 44.8201 91.5261 55.404 84.247 59.7304L42.5573 84.5089C35.2782 88.8353 26.0452 83.6594 25.938 75.1923L25.324 26.6988C25.2168 18.2316 34.3158 12.8236 41.7021 16.9643L84.0057 40.6794Z" fill="#CDDADA"/>
<path d="M31.502 60.5263C24.1687 56.2924 24.1687 45.7076 31.502 41.4737L73.502 17.225C80.8353 12.9911 90.002 18.2835 90.002 26.7513V75.2487C90.002 83.7165 80.8354 89.0089 73.502 84.775L31.502 60.5263Z" fill="white"/>
<circle cx="61.002" cy="51" r="10" fill="#CDDADA"/>
<path d="M109.832 30.136C110.429 30.136 111.048 30.3067 111.688 30.648C112.371 30.9467 112.883 31.352 113.224 31.864L128.776 55.8L125.576 55.672L141.512 31.864C142.323 30.712 143.368 30.136 144.648 30.136C145.672 30.136 146.589 30.4987 147.4 31.224C148.211 31.9493 148.616 32.888 148.616 34.04V71.096C148.616 72.2053 148.253 73.144 147.528 73.912C146.803 74.6373 145.843 75 144.648 75C143.453 75 142.472 74.6373 141.704 73.912C140.979 73.144 140.616 72.2053 140.616 71.096V40.952L143.112 41.528L130.056 61.432C129.672 61.9013 129.181 62.3067 128.584 62.648C128.029 62.9893 127.453 63.1387 126.856 63.096C126.301 63.1387 125.725 62.9893 125.128 62.648C124.573 62.3067 124.104 61.9013 123.72 61.432L111.496 42.104L113.16 38.712V71.096C113.16 72.2053 112.819 73.144 112.136 73.912C111.453 74.6373 110.557 75 109.448 75C108.381 75 107.507 74.6373 106.824 73.912C106.141 73.144 105.8 72.2053 105.8 71.096V34.04C105.8 32.9733 106.184 32.056 106.952 31.288C107.763 30.52 108.723 30.136 109.832 30.136ZM190.814 57.912C190.814 61.4107 190.024 64.504 188.446 67.192C186.91 69.8373 184.819 71.9067 182.174 73.4C179.571 74.8933 176.648 75.64 173.406 75.64C170.163 75.64 167.219 74.8933 164.574 73.4C161.971 71.9067 159.88 69.8373 158.302 67.192C156.766 64.504 155.998 61.4107 155.998 57.912C155.998 54.4133 156.766 51.3413 158.302 48.696C159.88 46.008 161.971 43.9173 164.574 42.424C167.219 40.888 170.163 40.12 173.406 40.12C176.648 40.12 179.571 40.888 182.174 42.424C184.819 43.9173 186.91 46.008 188.446 48.696C190.024 51.3413 190.814 54.4133 190.814 57.912ZM183.134 57.912C183.134 55.736 182.686 53.8587 181.79 52.28C180.936 50.6587 179.763 49.4 178.27 48.504C176.819 47.608 175.198 47.16 173.406 47.16C171.614 47.16 169.971 47.608 168.478 48.504C167.027 49.4 165.854 50.6587 164.958 52.28C164.104 53.8587 163.678 55.736 163.678 57.912C163.678 60.0453 164.104 61.9227 164.958 63.544C165.854 65.1227 167.027 66.36 168.478 67.256C169.971 68.152 171.614 68.6 173.406 68.6C175.198 68.6 176.819 68.152 178.27 67.256C179.763 66.36 180.936 65.1227 181.79 63.544C182.686 61.9227 183.134 60.0453 183.134 57.912ZM198.759 40.76C199.569 40.76 200.316 40.9733 200.999 41.4C201.681 41.784 202.193 42.3813 202.535 43.192L211.943 64.696L210.535 65.336L220.135 43.256C220.86 41.5493 221.991 40.7387 223.527 40.824C224.593 40.824 225.447 41.1653 226.087 41.848C226.769 42.488 227.111 43.2987 227.111 44.28C227.111 44.5787 227.047 44.8987 226.919 45.24C226.833 45.5813 226.727 45.9013 226.599 46.2L214.631 72.568C213.948 74.104 212.86 74.9147 211.367 75C210.556 75.128 209.767 74.9787 208.999 74.552C208.273 74.1253 207.719 73.464 207.335 72.568L195.431 46.2C195.345 45.9867 195.239 45.7093 195.111 45.368C195.025 45.0267 194.983 44.6213 194.983 44.152C194.983 43.384 195.324 42.6373 196.007 41.912C196.689 41.144 197.607 40.76 198.759 40.76ZM240.392 71.096C240.392 72.2053 240.029 73.144 239.304 73.912C238.579 74.6373 237.661 75 236.552 75C235.443 75 234.525 74.6373 233.8 73.912C233.075 73.144 232.712 72.2053 232.712 71.096V44.664C232.712 43.5547 233.075 42.6373 233.8 41.912C234.525 41.144 235.443 40.76 236.552 40.76C237.661 40.76 238.579 41.144 239.304 41.912C240.029 42.6373 240.392 43.5547 240.392 44.664V71.096ZM236.488 36.6C235.037 36.6 234.013 36.3653 233.416 35.896C232.819 35.4267 232.52 34.5947 232.52 33.4V32.184C232.52 30.9467 232.84 30.1147 233.48 29.688C234.163 29.2187 235.187 28.984 236.552 28.984C238.045 28.984 239.091 29.2187 239.688 29.688C240.285 30.1573 240.584 30.9893 240.584 32.184V33.4C240.584 34.6373 240.264 35.4907 239.624 35.96C238.984 36.3867 237.939 36.6 236.488 36.6ZM264.413 75.64C260.786 75.64 257.629 74.8933 254.941 73.4C252.296 71.864 250.248 69.7947 248.797 67.192C247.389 64.5893 246.685 61.6453 246.685 58.36C246.685 54.52 247.453 51.256 248.989 48.568C250.568 45.8373 252.616 43.7467 255.133 42.296C257.65 40.8453 260.317 40.12 263.133 40.12C265.309 40.12 267.357 40.568 269.277 41.464C271.24 42.36 272.968 43.5973 274.461 45.176C275.954 46.712 277.128 48.504 277.981 50.552C278.877 52.6 279.325 54.776 279.325 57.08C279.282 58.104 278.877 58.936 278.109 59.576C277.341 60.216 276.445 60.536 275.421 60.536H250.973L249.053 54.136H272.541L271.133 55.416V53.688C271.048 52.4507 270.6 51.3413 269.789 50.36C269.021 49.3787 268.04 48.6107 266.845 48.056C265.693 47.4587 264.456 47.16 263.133 47.16C261.853 47.16 260.658 47.3307 259.549 47.672C258.44 48.0133 257.48 48.5893 256.669 49.4C255.858 50.2107 255.218 51.2987 254.749 52.664C254.28 54.0293 254.045 55.7573 254.045 57.848C254.045 60.152 254.514 62.1147 255.453 63.736C256.434 65.3147 257.672 66.5307 259.165 67.384C260.701 68.1947 262.322 68.6 264.029 68.6C265.608 68.6 266.866 68.472 267.805 68.216C268.744 67.96 269.49 67.6613 270.045 67.32C270.642 66.936 271.176 66.616 271.645 66.36C272.413 65.976 273.138 65.784 273.821 65.784C274.76 65.784 275.528 66.104 276.125 66.744C276.765 67.384 277.085 68.1307 277.085 68.984C277.085 70.136 276.488 71.1813 275.293 72.12C274.184 73.0587 272.626 73.8907 270.621 74.616C268.616 75.2987 266.546 75.64 264.413 75.64ZM314.317 40.12C315.426 40.12 316.344 40.4827 317.069 41.208C317.794 41.9333 318.157 42.872 318.157 44.024V71.096C318.157 72.2053 317.794 73.144 317.069 73.912C316.344 74.6373 315.426 75 314.317 75C313.208 75 312.29 74.6373 311.565 73.912C310.84 73.144 310.477 72.2053 310.477 71.096V67.96L311.885 68.536C311.885 69.0907 311.586 69.7733 310.989 70.584C310.392 71.352 309.581 72.12 308.557 72.888C307.533 73.656 306.317 74.3173 304.909 74.872C303.544 75.384 302.05 75.64 300.429 75.64C297.485 75.64 294.818 74.8933 292.429 73.4C290.04 71.864 288.141 69.7733 286.733 67.128C285.368 64.44 284.685 61.368 284.685 57.912C284.685 54.4133 285.368 51.3413 286.733 48.696C288.141 46.008 290.018 43.9173 292.365 42.424C294.712 40.888 297.314 40.12 300.173 40.12C302.008 40.12 303.693 40.3973 305.229 40.952C306.765 41.5067 308.088 42.2107 309.197 43.064C310.349 43.9173 311.224 44.792 311.821 45.688C312.461 46.5413 312.781 47.2667 312.781 47.864L310.477 48.696V44.024C310.477 42.9147 310.84 41.9973 311.565 41.272C312.29 40.504 313.208 40.12 314.317 40.12ZM301.389 68.6C303.266 68.6 304.909 68.1307 306.317 67.192C307.725 66.2533 308.813 64.9733 309.581 63.352C310.392 61.7307 310.797 59.9173 310.797 57.912C310.797 55.864 310.392 54.0293 309.581 52.408C308.813 50.7867 307.725 49.5067 306.317 48.568C304.909 47.6293 303.266 47.16 301.389 47.16C299.554 47.16 297.933 47.6293 296.525 48.568C295.117 49.5067 294.008 50.7867 293.197 52.408C292.429 54.0293 292.045 55.864 292.045 57.912C292.045 59.9173 292.429 61.7307 293.197 63.352C294.008 64.9733 295.117 66.2533 296.525 67.192C297.933 68.1307 299.554 68.6 301.389 68.6Z" fill="white"/>
</svg>
