<svg width="579" height="160" viewBox="0 0 579 160" fill="none" xmlns="http://www.w3.org/2000/svg">
<rect width="579" height="160" fill="#041C32"/>
<path d="M205.006 69.6794C212.392 73.8201 212.526 84.404 205.247 88.7304L163.557 113.509C156.278 117.835 147.045 112.659 146.938 104.192L146.324 55.6988C146.217 47.2316 155.316 41.8236 162.702 45.9643L205.006 69.6794Z" fill="#CDDADA"/>
<path d="M152.502 89.5263C145.169 85.2924 145.169 74.7076 152.502 70.4737L194.502 46.225C201.835 41.9911 211.002 47.2835 211.002 55.7513V104.249C211.002 112.717 201.835 118.009 194.502 113.775L152.502 89.5263Z" fill="white"/>
<circle cx="182.002" cy="80" r="10" fill="#CDDADA"/>
<path d="M230.832 59.136C231.429 59.136 232.048 59.3067 232.688 59.648C233.371 59.9467 233.883 60.352 234.224 60.864L249.776 84.8L246.576 84.672L262.512 60.864C263.323 59.712 264.368 59.136 265.648 59.136C266.672 59.136 267.589 59.4987 268.4 60.224C269.211 60.9493 269.616 61.888 269.616 63.04V100.096C269.616 101.205 269.253 102.144 268.528 102.912C267.803 103.637 266.843 104 265.648 104C264.453 104 263.472 103.637 262.704 102.912C261.979 102.144 261.616 101.205 261.616 100.096V69.952L264.112 70.528L251.056 90.432C250.672 90.9013 250.181 91.3067 249.584 91.648C249.029 91.9893 248.453 92.1387 247.856 92.096C247.301 92.1387 246.725 91.9893 246.128 91.648C245.573 91.3067 245.104 90.9013 244.72 90.432L232.496 71.104L234.16 67.712V100.096C234.16 101.205 233.819 102.144 233.136 102.912C232.453 103.637 231.557 104 230.448 104C229.381 104 228.507 103.637 227.824 102.912C227.141 102.144 226.8 101.205 226.8 100.096V63.04C226.8 61.9733 227.184 61.056 227.952 60.288C228.763 59.52 229.723 59.136 230.832 59.136ZM311.814 86.912C311.814 90.4107 311.024 93.504 309.446 96.192C307.91 98.8373 305.819 100.907 303.174 102.4C300.571 103.893 297.648 104.64 294.406 104.64C291.163 104.64 288.219 103.893 285.574 102.4C282.971 100.907 280.88 98.8373 279.302 96.192C277.766 93.504 276.998 90.4107 276.998 86.912C276.998 83.4133 277.766 80.3413 279.302 77.696C280.88 75.008 282.971 72.9173 285.574 71.424C288.219 69.888 291.163 69.12 294.406 69.12C297.648 69.12 300.571 69.888 303.174 71.424C305.819 72.9173 307.91 75.008 309.446 77.696C311.024 80.3413 311.814 83.4133 311.814 86.912ZM304.134 86.912C304.134 84.736 303.686 82.8587 302.79 81.28C301.936 79.6587 300.763 78.4 299.27 77.504C297.819 76.608 296.198 76.16 294.406 76.16C292.614 76.16 290.971 76.608 289.478 77.504C288.027 78.4 286.854 79.6587 285.958 81.28C285.104 82.8587 284.678 84.736 284.678 86.912C284.678 89.0453 285.104 90.9227 285.958 92.544C286.854 94.1227 288.027 95.36 289.478 96.256C290.971 97.152 292.614 97.6 294.406 97.6C296.198 97.6 297.819 97.152 299.27 96.256C300.763 95.36 301.936 94.1227 302.79 92.544C303.686 90.9227 304.134 89.0453 304.134 86.912ZM319.759 69.76C320.569 69.76 321.316 69.9733 321.999 70.4C322.681 70.784 323.193 71.3813 323.535 72.192L332.943 93.696L331.535 94.336L341.135 72.256C341.86 70.5493 342.991 69.7387 344.527 69.824C345.593 69.824 346.447 70.1653 347.087 70.848C347.769 71.488 348.111 72.2987 348.111 73.28C348.111 73.5787 348.047 73.8987 347.919 74.24C347.833 74.5813 347.727 74.9013 347.599 75.2L335.631 101.568C334.948 103.104 333.86 103.915 332.367 104C331.556 104.128 330.767 103.979 329.999 103.552C329.273 103.125 328.719 102.464 328.335 101.568L316.431 75.2C316.345 74.9867 316.239 74.7093 316.111 74.368C316.025 74.0267 315.983 73.6213 315.983 73.152C315.983 72.384 316.324 71.6373 317.007 70.912C317.689 70.144 318.607 69.76 319.759 69.76ZM361.392 100.096C361.392 101.205 361.029 102.144 360.304 102.912C359.579 103.637 358.661 104 357.552 104C356.443 104 355.525 103.637 354.8 102.912C354.075 102.144 353.712 101.205 353.712 100.096V73.664C353.712 72.5547 354.075 71.6373 354.8 70.912C355.525 70.144 356.443 69.76 357.552 69.76C358.661 69.76 359.579 70.144 360.304 70.912C361.029 71.6373 361.392 72.5547 361.392 73.664V100.096ZM357.488 65.6C356.037 65.6 355.013 65.3653 354.416 64.896C353.819 64.4267 353.52 63.5947 353.52 62.4V61.184C353.52 59.9467 353.84 59.1147 354.48 58.688C355.163 58.2187 356.187 57.984 357.552 57.984C359.045 57.984 360.091 58.2187 360.688 58.688C361.285 59.1573 361.584 59.9893 361.584 61.184V62.4C361.584 63.6373 361.264 64.4907 360.624 64.96C359.984 65.3867 358.939 65.6 357.488 65.6ZM385.413 104.64C381.786 104.64 378.629 103.893 375.941 102.4C373.296 100.864 371.248 98.7947 369.797 96.192C368.389 93.5893 367.685 90.6453 367.685 87.36C367.685 83.52 368.453 80.256 369.989 77.568C371.568 74.8373 373.616 72.7467 376.133 71.296C378.65 69.8453 381.317 69.12 384.133 69.12C386.309 69.12 388.357 69.568 390.277 70.464C392.24 71.36 393.968 72.5973 395.461 74.176C396.954 75.712 398.128 77.504 398.981 79.552C399.877 81.6 400.325 83.776 400.325 86.08C400.282 87.104 399.877 87.936 399.109 88.576C398.341 89.216 397.445 89.536 396.421 89.536H371.973L370.053 83.136H393.541L392.133 84.416V82.688C392.048 81.4507 391.6 80.3413 390.789 79.36C390.021 78.3787 389.04 77.6107 387.845 77.056C386.693 76.4587 385.456 76.16 384.133 76.16C382.853 76.16 381.658 76.3307 380.549 76.672C379.44 77.0133 378.48 77.5893 377.669 78.4C376.858 79.2107 376.218 80.2987 375.749 81.664C375.28 83.0293 375.045 84.7573 375.045 86.848C375.045 89.152 375.514 91.1147 376.453 92.736C377.434 94.3147 378.672 95.5307 380.165 96.384C381.701 97.1947 383.322 97.6 385.029 97.6C386.608 97.6 387.866 97.472 388.805 97.216C389.744 96.96 390.49 96.6613 391.045 96.32C391.642 95.936 392.176 95.616 392.645 95.36C393.413 94.976 394.138 94.784 394.821 94.784C395.76 94.784 396.528 95.104 397.125 95.744C397.765 96.384 398.085 97.1307 398.085 97.984C398.085 99.136 397.488 100.181 396.293 101.12C395.184 102.059 393.626 102.891 391.621 103.616C389.616 104.299 387.546 104.64 385.413 104.64ZM435.317 69.12C436.426 69.12 437.344 69.4827 438.069 70.208C438.794 70.9333 439.157 71.872 439.157 73.024V100.096C439.157 101.205 438.794 102.144 438.069 102.912C437.344 103.637 436.426 104 435.317 104C434.208 104 433.29 103.637 432.565 102.912C431.84 102.144 431.477 101.205 431.477 100.096V96.96L432.885 97.536C432.885 98.0907 432.586 98.7733 431.989 99.584C431.392 100.352 430.581 101.12 429.557 101.888C428.533 102.656 427.317 103.317 425.909 103.872C424.544 104.384 423.05 104.64 421.429 104.64C418.485 104.64 415.818 103.893 413.429 102.4C411.04 100.864 409.141 98.7733 407.733 96.128C406.368 93.44 405.685 90.368 405.685 86.912C405.685 83.4133 406.368 80.3413 407.733 77.696C409.141 75.008 411.018 72.9173 413.365 71.424C415.712 69.888 418.314 69.12 421.173 69.12C423.008 69.12 424.693 69.3973 426.229 69.952C427.765 70.5067 429.088 71.2107 430.197 72.064C431.349 72.9173 432.224 73.792 432.821 74.688C433.461 75.5413 433.781 76.2667 433.781 76.864L431.477 77.696V73.024C431.477 71.9147 431.84 70.9973 432.565 70.272C433.29 69.504 434.208 69.12 435.317 69.12ZM422.389 97.6C424.266 97.6 425.909 97.1307 427.317 96.192C428.725 95.2533 429.813 93.9733 430.581 92.352C431.392 90.7307 431.797 88.9173 431.797 86.912C431.797 84.864 431.392 83.0293 430.581 81.408C429.813 79.7867 428.725 78.5067 427.317 77.568C425.909 76.6293 424.266 76.16 422.389 76.16C420.554 76.16 418.933 76.6293 417.525 77.568C416.117 78.5067 415.008 79.7867 414.197 81.408C413.429 83.0293 413.045 84.864 413.045 86.912C413.045 88.9173 413.429 90.7307 414.197 92.352C415.008 93.9733 416.117 95.2533 417.525 96.192C418.933 97.1307 420.554 97.6 422.389 97.6Z" fill="white"/>
</svg>
